# xmcd
#
# Track frame offsets:
#	150
#	18414
#	37624
#	56100
#	75443
#	95909
#	115104
#	130970
#	144823
#	162225
#	179539
#	198874
#	220977
#	237104
#	256516
#
# Disc length: 3602
#
# Revision: 1
# Processed by: cddbd v1.5.1PL0 Copyright (c) Steve Scherf et al.
# Submitted via: EasyCDDAExtractor 4.6.9.1
# Normalized: r0:DSETVAR1,TDELIM( - )
#
DISCID=be0e100f
DTITLE=Various Artist - Absolute Love 2 - CD 1
DYEAR=2000
DGENRE=Ballad
TTITLE0=Westlife - If I let you go
TTITLE1=Melanie C. feat Lisa Left Eye Lopes - Never be the same again
TTITLE2=Britney Spears - Born to make you happy
TTITLE3=Roxette - Wish I could fly
TTITLE4=Andreas Johnson - The games we play
TTITLE5=Eagle-Eye Cherry - Falling in love again
TTITLE6=Jennifer Paige - Crush
TTITLE7=Backstreet Boys - Show me the meaning of being lonely
TTITLE8=TLC - Dear Lie
TTITLE9=Brandy and Monica - The boy is mine
TTITLE10=All Saints - Never ever
TTITLE11=Angie Stone - Life story
TTITLE12=En Vogue - Don't let go (Love)
TTITLE13=Noora - Official
TTITLE14=Jessica Folcker - How will I know (Who you are)
EXTD=
EXTT0=
EXTT1=
EXTT2=
EXTT3=
EXTT4=
EXTT5=
EXTT6=
EXTT7=
EXTT8=
EXTT9=
EXTT10=
EXTT11=
EXTT12=
EXTT13=
EXTT14=
PLAYORDER=
